<?xml version="1.0" encoding="UTF-8"?>
<svg version="1.1" viewBox="0 0 2048 870" width="1280" height="1280" xmlns="http://www.w3.org/2000/svg">
<path transform="translate(882,39)" d="m0 0h188l7 8 12 18 17 28 13 22 48 80 34 56 8 14 17 28 21 35 14 23 12 20v2h2l2-5 10-16 14-23 19-32 17-28 60-100 12-19 6-11 6-9 6-11 14-23 12-20 13-22 9-14 1-1h188l2 3 2 9 5 4 2 10 1 18-1 732-2 6-3 1h-80l-49-2-34-1-14-1-6-4-10-3-1-15-1-361-1-14-1-2-8 16-8 14-9 14-13 22-17 29-8 13-17 28-26 44-21 35-14 24-13 22-7 9-6 5-10 2h-18l-10-1-8-4-8-5-5-5-13-22-19-32-9-15-19-32-30-50-16-27-12-20-19-32-9-15-11-17-1-3h-2l-1 8-2 21-1 134v57l-1 147v33l-2 6h-75l-45-2-48-1-15-1-2-4-13-3-1-1-1-20v-670l1-80z" fill="#550F94"/>
<path transform="translate(66,39)" d="m0 0h188l8 9 12 17 11 17 12 19 11 17 14 22 11 17 16 25 13 20 14 22 13 20 14 22 16 25 11 17 14 22 16 25 14 22 10 15 14 22 6 9 1-371 1-12 1-1h188l3 12 6 5 3 12v138l-1 339v268l-2 7-3 2-28 1h-86l-27-1-10-3-8-5-5-3-7-10-14-22-11-17-14-22-11-17-32-50-14-22-11-17-32-50-13-20-16-25-11-17-32-50-22-34-16-25-8-11-3-2-1 15-1 21-1 123v46l-1 174-1 41-3 2h-56l-64-2-48-1-13-1-1-4-10-2-4-2-1-4v-757z" fill="#550F94"/>
<path transform="translate(1920,639)" d="m0 0h31l18 3 13 5 11 6 10 8 9 9 13 19 7 13 4 14 2 18v17l-3 24-4 13-9 16-12 13-11 8-13 6-16 4-8 1h-31l-16-3-14-6-17-10-13-10-9-9-9-14-6-14-5-21v-32l3-17 6-16 5-9 10-13 10-8 14-8 16-5z" fill="#550F93"/>
<path transform="translate(695,49)" d="m0 0h2l5 5 3 5 2 11v136l-1 339v268l-2 7-3 2-28 1h-86l-27-1-10-3-8-5-5-3-7-10-1-4 8 6 5 4 5 2 20 1h71l56-1v-738z" fill="#100B0E"/>
<path transform="translate(1665,48)" d="m0 0 7 6 2 5 2 21-1 735-2 6-3 1h-80l-49-2-34-1-14-1-6-4-4-1v-2l4-1h120l44-1 12-1v-55l1-702z" fill="#100B0E"/>
<path transform="translate(254,372)" d="m0 0 4 1 7 10 10 15-1 2h-4l-1 15-1 21-1 123v46l-1 174-1 41-3 2h-56l-64-2-48-1-13-1-1-4-10-2v-2h131l54-1v-111l1-8v-58l-1-30z" fill="#2B2528"/>
<path transform="translate(1070,385)" d="m0 0 4 1 7 11 4 8-1 2-4-1-2 9-1 16v116l3 209v63h-87l-20-1-74-1-1-3-12-2-1-2h128l41-1 16-1z" fill="#100B0E"/>
<path transform="translate(1475,385)" d="m0 0 3 1-1 30-2-4v-3l-3 1-5 10-9 15-24 38-5 9-9 15-13 22-8 13-6 11-6 9-6 11-24 40-32 54-12 20-9 10-6 2-9 1-17-1-8-2-3-1v-2h-8l-4-2-1-4 4 2 6 2 8 1h24l7-3 10-16 29-49 45-75 13-22 11-18 8-13 6-11 8-13 15-25 19-32 11-18z" fill="#100B0E"/>
<path transform="translate(2014,676)" d="m0 0 3 1 9 14 6 11 4 14 2 18v17l-3 24-4 13-9 16-12 13-11 8-13 6-16 4-8 1h-31l-16-3-14-6-17-10-13-10-9-9-6-9 1-2 12 13 9 8 17 8 15 5 12 2h29l10-2 16-5 12-6 10-8 10-11 8-15 6-21 2-19v-13l-2-18-5-18-4-8z" fill="#2B2528"/>
<path transform="translate(696,49)" d="m0 0 7 6 3 7 1 8v136l-1 339v268l-2 7-3 2-28 1h-86l-27-1-10-3-6-4 3-1 9 4 29 1h87l22-1 7-3 1-9v-418l-1-158-2-149-1-21-2-6z" fill="#5D575A"/>
<path transform="translate(695,49)" d="m0 0h1l3 11 1 21 2 149 1 158v418l-1 9-8 4-22 1h-87l-29-1-9-4-9-3-1-2 10 2 7 1 38 1 74 1h28l4-1 1-3 1-72 1-87v-113l-1-162-1-101-1-8h-2v12h-1l-1-94v-115z" fill="#2B2528"/>
<path transform="translate(1472,409)" d="m0 0h3l2 7v380h-1l-1-361-1-14-1-2-8 16-8 14-9 14-13 22-17 29-8 13-17 28-26 44-21 35-14 24-13 22-7 9-6 5-10 2h-18l-10-1-8-4-8-5-3-3 2-1 10 2v2l21 3h9l11-2 7-6 9-14 13-22 10-17 24-40 13-22 7-11 6-11 6-9 6-11 17-29 11-18 10-17 12-19 8-13 9-15z" fill="#807D7C"/>
<path transform="translate(264,390)" d="m0 0 4 1 4 7v2h-2l-1 15-1 21-1 123v46l-1 174-1 41-3 2h-56l-64-2-48-1-13-1v-3l1 1 16 1 98 1h67l-1-123-1-93-1-17v-171l1-20z" fill="#6F6B6B"/>
<path transform="translate(1080,406)" d="m0 0 5 1 4 9h-2l-1 8-2 21-1 134v57l-1 147v33l-2 6h-75l-45-2-48-1-15-1-2-4-2-1 5 1 1 2 74 1 20 1 87 1-4-272v-116l1-16z" fill="#6B6767"/>
<path transform="translate(1666,49)" d="m0 0 7 6 2 10 1 18-1 732-2 6-3 1h-80l-49-2-34-1-14-1-6-4 3-1 5 2 7 1 79 1 20 1h62l7-1 1-1 1-156 1-183v-227l-1-50-1-23-2-85-1-31-2-7z" fill="#8B8888"/>
<path transform="translate(1070,385)" d="m0 0 4 1 7 11 4 8-1 2-4-1-2 9-1 16v116l3 209v63h-3l-1-77-2-47-1-11-1-55-1-96h-1z" fill="#2A2427"/>
<path transform="translate(1476,399)" d="m0 0h1v17l-2-4v-3l-3 1-5 10-9 15-24 38-5 9-9 15-13 22-8 13-6 11-6 9-6 11-24 40-32 54-12 20-9 10-6 2-9 1-17-1-8-2-3-1v-2h-8l-4-2-1-4 4 2 6 2 8 1 30 1 6-4 3-1v-2l3-3 9-15 7-11 13-22 14-24 13-22 24-40 13-22 5-9 8-13 8-14 14-23 12-19 11-17 8-14 6-8h3z" fill="#2A2427"/>
<path transform="translate(256,690)" d="m0 0 2 3 2 38v87h-60l-89-1-27-1-3-2-11-2v-2h131l54-1v-111z" fill="#0F0A0D"/>
<path transform="translate(698,52)" d="m0 0 4 2 3 5 2 11v136l-1 339v268l-2 7-3 2-28 1h-86l-27-1-10-3-6-4 3-1 9 4 29 1h87l22-1 9-1 1-413v-329l-1-13-3-7-2-1z" fill="#898786"/>
<path transform="translate(2017,679)" d="m0 0 5 5 10 18 4 14 2 18v17l-3 24-4 13-9 16-12 13-11 8-13 6-16 4-8 1h-31l-16-3-14-6-15-9 4-1 17 6v2l28 4h21l19-3 15-5 11-6 10-9 8-11 6-13 4-16 1-8v-35l-3-17-4-13v-2h-2l-1-7h-2z" fill="#6D6969"/>
<path transform="translate(1672,495)" d="m0 0h1v171l-1 150-2 2-7 1h-62l-13-1v-1l6-1 69-1 3-1 2-5 1-192 1-84z" fill="#2B2528"/>
<path transform="translate(1666,49)" d="m0 0 7 6 2 10 1 18-1 442-2 1v-276l-1-50-1-23-2-85-1-31-2-7z" fill="#5F5A5C"/>
<path transform="translate(702,652)" d="m0 0h1v154l-1 9-8 4-22 1h-87l-29-1-9-4-9-3-1-2 10 2 7 1 38 1 74 1h28l4-1 1-3 1-72 1-86z" fill="#2B2528"/>
<path transform="translate(1473,416)" d="m0 0 3 3v16h-1l-1-14-1-2-8 16-8 14-9 14-13 22-17 29-8 13-17 28-26 44-21 35-14 24-13 22-7 9-6 5-10 2h-18l-10-1-8-4-8-5 3-1 14 6 4 1h26l7-3 7-6 12-20 10-17 16-27 17-28 14-24 12-20 19-32 17-28 9-16 7-11 11-18 12-20z" fill="#DBDCDB"/>
<path transform="translate(311,128)" d="m0 0 5 2 8 13 16 25 13 20 16 25 13 20 28 44 11 17 32 50 14 22 11 17 13 20 7 11-1 3-9-12-14-21-15-23-9-15-16-25-11-17-13-21-10-16-10-15-12-19-10-15-11-17-7-11-11-17-10-15-14-22z" fill="#4C4749"/>
<path transform="translate(1078,52)" d="m0 0 4 2 12 19 13 22 60 100 34 56 8 14 17 28 24 40-1 2-5-5-10-16-10-17-9-15-13-22-30-50-9-14-2-4v-5h-3l-1-5-2-1v-2h-2l-7-12-24-40-10-16-9-16-17-28-8-13z" fill="#4D484A"/>
<path transform="translate(1077,402)" d="m0 0 5 1 1 3h-3l-2 9-1 16v116l3 209v63l-3-1h2l-1-15-1-88-3-123v-160l1-21z" fill="#4E474C"/>
<path transform="translate(1472,405)" d="m0 0h3l2 4v7l-2-4v-3l-3 1-5 10-9 15-24 38-5 9-9 15-13 22-8 13-6 11-6 9-6 11-24 40-32 54-12 20-9 10-6 2-9 1-17-1-8-2-3-2 20 2 16-1 8-4 7-9 7-12 12-20 16-27 8-14 36-60 11-19 13-22 12-20 11-18 12-20 10-15 6-11z" fill="#4E474C"/>
<path transform="translate(2026,718)" d="m0 0h1l1 32-2 18-5 16-9 14-4 5-8 7-7 5-8 4-17 5-14 2h-29v-1l19-1 17-3 16-5 12-6 10-8 10-11 8-15 6-21 2-19z" fill="#0F0A0D"/>
<path transform="translate(698,52)" d="m0 0 4 2 3 5 2 11v136l-1 322h-1l-1-453-1-13-3-7-2-1z" fill="#DBDCDB"/>
<path transform="translate(2022,686)" d="m0 0 3 3 7 13 4 14 2 18v17l-3 24-4 13-9 16-12 13-11 8-13 6-16 4-8 1h-31l-16-3-14-6-8-5 2-1 11 5 18 5 18 2h10l20-2 17-5 13-7 8-7h2l2-4 6-7 9-17 4-16 2-19-1-26-4-16-5-13-3-6z" fill="#DBDCDB"/>
<path transform="translate(261,386)" d="m0 0 5 3 1 2-4 1-1 2-1 20v171l1 17 2 204v12l-2-2-1-98-2-92v-223l1-14z" fill="#4E474C"/>
<path transform="translate(1084,411)" d="m0 0 4 2 1 3h-2l-1 8-2 21-1 134v57l-1 75h-1l-1-220 1-60 1-14z" fill="#DBDCDB"/>
<path transform="translate(268,395)" d="m0 0 4 3v2h-2l-1 15-1 21-1 123v46l-1 54h-1l-1-56v-109l1-66 1-24z" fill="#DBDCDB"/>
<path transform="translate(1666,49)" d="m0 0 7 6 2 10 1 18-1 100h-2l-1-12-1-38-1-58-1-18h-2z" fill="#8D8B8A"/>
<path transform="translate(1672,537)" d="m0 0h1v129l-1 150-2 2-7 1h-62l-13-1v-1h61l19-1 2-5 1-230z" fill="#4E474C"/>
<path transform="translate(893,813)" d="m0 0 5 1 1 2 74 1 20 1 84 1 4 2-1 1h-75l-45-2-48-1-15-1-2-4z" fill="#8E8B8C"/>
<path transform="translate(1665,48)" d="m0 0h1l3 13 2 75 1 41 1 23v30h-1l-1-13-4-126-1 17-1 36h-1v-93z" fill="#2B2528"/>
<path transform="translate(537,810)" d="m0 0 10 2 6 2 8 1 26 1 100 1 7 1v1l-22 1h-87l-29-1-9-4-9-3z" fill="#5C5759"/>
<path transform="translate(2022,691)" d="m0 0 2 2 4 13 3 17v35l-3 18-5 13-6 11-11 12-10 7-11 5-15 4-14 2h-21l-21-3-7-2v-1l9 1 14 2h22l13-1 18-5 12-5 8-6h2v-2l5-5 7-9 6-13 4-15 2-16v-20l-3-23-4-13z" fill="#4E474C"/>
<path transform="translate(254,372)" d="m0 0 4 1 7 10 10 15-1 2h-2l-6-10-1-4-5-1-2 15-1 21-1 181h-1z" fill="#100B0E"/>
<path transform="translate(1078,52)" d="m0 0 4 2 12 19 13 22 36 60 4 6v6l-3-3-10-17-12-20-10-16-9-16-17-28-8-13z" fill="#353033"/>
<path transform="translate(426,307)" d="m0 0h2v2l4 2 12 19 16 25 14 22 10 15 14 22-1 3-9-12-14-21-15-23-9-15-16-25-8-12z" fill="#4B4749"/>
<path transform="translate(544,814)" d="m0 0 5 1 7 3 29 1 101 1 15-1 4-2-2 4-2 1-28 1h-86l-27-1-10-3-6-4z" fill="#DBDCDB"/>
<path transform="translate(1487,813)" d="m0 0 7 1 1 1 7 1 79 1 20 1 60 1-4 2h-36l-80-1-34-1-14-1-6-4z" fill="#645F60"/>
<path transform="translate(80,815)" d="m0 0 2 1 16 1 98 1 65 2v1h-94l-25-1-48-1-13-1z" fill="#7A7677"/>
<path transform="translate(1856,787)" d="m0 0 18 18 10 6 14 6 17 5 7 1 22 1v1l-14 1v1h-10l-20-5-10-4-7-2-11-8-10-10-6-9z" fill="#2B2528"/>
<path transform="translate(1070,385)" d="m0 0 4 1 7 11-1 3-3-1-2 5-2 13-1 63h-1l-1-41z" fill="#0F0A0D"/>
<path transform="translate(2014,676)" d="m0 0 3 1 1 7h2l7 23 3 23v20l-3 21-5 15-1 2h-2l3-9 3-11 2-18-1-27h-1l-2-18-5-18-4-8z" fill="#2B2528"/>
<path transform="translate(311,128)" d="m0 0 5 2 8 13 16 25 7 11-1 4-7-10-10-15-14-22z" fill="#332E31"/>
<path transform="translate(893,813)" d="m0 0 5 1 1 2 74 1 20 1v1h-81l-15-1-2-4z" fill="#534D50"/>
<path transform="translate(465,369)" d="m0 0 5 2 10 15 11 17 7 11-1 3-9-12-14-21-9-14z" fill="#3A3638"/>
<path transform="translate(1222,288)" d="m0 0 4 5 24 40-1 2-5-5-10-16-10-17-3-6z" fill="#4F4A4C"/>
<path transform="translate(77,813)" d="m0 0 6 1 1 1 27 1 85 1v1h-98l-16-1z" fill="#2B2528"/>
<path transform="translate(1856,787)" d="m0 0 18 18 10 6 6 3-2 1v2l-5-1-11-8-10-10-6-9z" fill="#443F41"/>
<path transform="translate(347,180)" d="m0 0 4 5 11 17 10 16v3l-3-1-10-16-7-11-6-10z" fill="#423D40"/>
<path transform="translate(1487,813)" d="m0 0 7 1 1 1 7 1 20 1 39 1v2h-20l-34-1-14-1-6-4z" fill="#8E8B8B"/>
<path transform="translate(263,53)" d="m0 0 4 2 7 10 11 17 9 14-1 4-7-10-8-13-12-19z" fill="#272225"/>
<path transform="translate(1078,52)" d="m0 0 4 2 12 19 7 12v5l-3-3-12-20-8-13z" fill="#332E31"/>
<path transform="translate(1147,163)" d="m0 0 4 5 13 22 5 8v5l-4-4-4-7v-5h-3l-1-5-2-1v-2h-2l-6-10z" fill="#4E494B"/>
<path transform="translate(2014,676)" d="m0 0 3 1 1 7h2l7 23 1 13-3 3-2-18-5-18-4-8z" fill="#2F292C"/>
<path transform="translate(537,810)" d="m0 0 10 2 6 2v2l30 1 2 2h-29l-9-4-9-3z" fill="#716D6D"/>
<path transform="translate(1248,678)" d="m0 0 4 2 6 2 26 2-4 3h-12l-7-2-10-2-3-3z" fill="#2F292C"/>
<path transform="translate(1222,288)" d="m0 0 4 5 9 15 2 5-6-4-10-17z" fill="#585256"/>
<path transform="translate(426,307)" d="m0 0h2v2l4 2 10 16v5l-4-5-10-15z" fill="#383336"/>
<path transform="translate(294,102)" d="m0 0 5 2 12 19-1 4-6-8-3-5z" fill="#332E31"/>
<path transform="translate(414,285)" d="m0 0 4 4 10 16 2 4h-2v-2l-4-1-9-15-2-4z" fill="#4F4A4D"/>
<path transform="translate(1101,86)" d="m0 0 4 5 8 14 2 5h-2v-2l-4-2-8-14z" fill="#413C3E"/>
<path transform="translate(372,219)" d="m0 0 4 5 10 15-1 2-5-5-9-13z" fill="#4B4648"/>
<path transform="translate(1487,813)" d="m0 0 7 1 1 1 7 1 18 1v2h-13l-14-1-6-4z" fill="#8A8787"/>
<path transform="translate(77,813)" d="m0 0 6 1 1 1 27 1 7 1v1h-20l-16-1z" fill="#433D41"/>
<path transform="translate(1137,146)" d="m0 0 4 5 6 10v6l-3-3-7-12z" fill="#3D393B"/>
<path transform="translate(347,180)" d="m0 0 4 5 8 12v2l-4-1-9-14z" fill="#474244"/>
<path transform="translate(1169,200)" d="m0 0 3 3 9 15-1 2-5-5-6-10z" fill="#565153"/>
<path transform="translate(1089,71)" d="m0 0 5 2 7 12v5l-3-3-9-15z" fill="#2B2729"/>
<path transform="translate(1211,274)" d="m0 0 4 1 7 11v5l-5-5-6-10z" fill="#464043"/>
<path transform="translate(442,328)" d="m0 0 4 5 6 9-1 2-3-1-6-9z" fill="#514C4E"/>
<path transform="translate(1951,823)" d="m0 0 4 1-1 2h-29v-1l19-1z" fill="#100B0E"/>
<path transform="translate(449,343)" d="m0 0 4 1 5 8 1 6-4-4-6-9z" fill="#342E31"/>
<path transform="translate(486,401)" d="m0 0 5 2 7 11-1 3-9-12z" fill="#342F31"/>
<path transform="translate(1111,108)" d="m0 0h2v2l4 1 4 7v2l-4-1-6-10z" fill="#353032"/>
<path transform="translate(1194,241)" d="m0 0 4 5 4 7-1 2-5-5-3-6z" fill="#565153"/>
<path transform="translate(1161,190)" d="m0 0 4 1 4 7v5l-4-4-4-7z" fill="#403B3D"/>
<path transform="translate(1253,340)" d="m0 0 4 4 5 8v3h-2l-7-11z" fill="#706C6E"/>
<path transform="translate(435,317)" d="m0 0 4 5 3 5v5l-4-5-3-4z" fill="#403C3E"/>
<path transform="translate(1119,120)" d="m0 0 4 1 4 7v2l-4-1-4-6z" fill="#3A3537"/>
<path transform="translate(1888,815)" d="m0 0 7 1 6 2v2l-9-1-4-2z" fill="#262023"/>
<path transform="translate(1101,86)" d="m0 0 4 5 3 9-3-1-4-7z" fill="#393436"/>
<path transform="translate(1238,664)" d="m0 0 4 4 6 9 1 5-3-3-8-13z" fill="#666163"/>
<path transform="translate(420,298)" d="m0 0 5 2 5 9h-2v-2l-4-1z" fill="#514C4F"/>
<path transform="translate(406,276)" d="m0 0 4 1 4 6-1 4-7-10z" fill="#423D3F"/>
<path transform="translate(340,172)" d="m0 0 4 2 3 5-1 4-6-8z" fill="#2C2729"/>
<path transform="translate(383,240)" d="m0 0 5 2 3 5-1 4-7-10z" fill="#443F41"/>
<path transform="translate(372,219)" d="m0 0 4 5 3 4-1 2-5-4-2-5z" fill="#504B4D"/>
<path transform="translate(304,116)" d="m0 0 4 2 3 5-1 4-6-8z" fill="#221D20"/>
<path transform="translate(286,89)" d="m0 0 4 1 4 6-1 4-7-10z" fill="#282225"/>
<path transform="translate(282,79)" d="m0 0 3 3 4 6-1 2-5-5-2-4z" fill="#383335"/>
<path transform="translate(1244,324)" d="m0 0 3 4 3 5-1 2-5-5-1-2z" fill="#686466"/>
<path transform="translate(357,199)" d="m0 0 4 1 2 4-1 4-5-7z" fill="#393336"/>
<path transform="translate(263,53)" d="m0 0 4 2 6 8-1 2-5-5z" fill="#373235"/>
</svg>
